<svg viewBox="0 0 257.13 257.13" xmlns="http://www.w3.org/2000/svg"><path d="M217.54 154a110.67 110.67 0 0 0-2.88-14.5c-2.15-8.28-3.72-16.75-7.67-24.48-.11-.2.1-.58.2-1l3.23-.48c2.06-2.93.79-5.58-.52-8.05-3.78-7.13-7.7-14.19-11.61-21.26-1.18-2.15-2.49-4.22-3.26-5.53 1.06-5.2 1.92-9.54 2.84-13.86.51-2.43.57-5.2 1.82-7.18C202 54 202 50.19 201.8 46.23a8.2 8.2 0 0 1 .43-3.43c1-2.4.22-4.58-.52-6.76-.28-.81-1.08-2-1.69-2a4.94 4.94 0 0 0-2.92 1.19 33.65 33.65 0 0 0-3 2.94c-3.8 3.63-8.67 6.22-10.73 11.21-4.23.88-7.67.54-10.68-2.7-1.05-1.14-2.18-2.21-3.34-3.26a76.596 76.596 0 0 0-5.61-4.57c-5.36-4-11.82-5.31-18.21-6.69 0-.18.09-.34.12-.49a1.64 1.64 0 0 1 .23-.6c1.36-1.79.68-3.22-1-4.08-1.85-.94-3.07.14-4 1.77a7.06 7.06 0 0 0-1 2.85 14.27 14.27 0 0 0 .4 4.76c1.64.41 3.38.79 5.08 1.29a43.18 43.18 0 0 1 7.05 2.24 67.86 67.86 0 0 1 25.62 22c1.35 1.88 3.27 3.46 4.21 5.51a132.63 132.63 0 0 0 6.35 12c3.35 5.74 6.92 11.35 10.11 17.19.33.61.65 1.24 1 1.87 1.42 2.74 2.75 5.53 4.1 8.3.25.51.49 1 .74 1.52l-.23.12a2.43 2.43 0 0 1-.64.32h-1c-3.32 0-4.54 1.56-2.78 4 3 4.28 4.24 9.3 5.83 14.1 1.42 4.28 2.49 8.67 3.56 13.06.62 2.52 1.24 5 1.92 7.53a54.51 54.51 0 0 1 1.9 12.49 61.59 61.59 0 0 1-.12 6.51c-.14 2-.66 3.91-.76 5.88-.27 5.42-.37 10.84-.64 16.26a1.47 1.47 0 0 1-.08.35 15.86 15.86 0 0 1-1.09 1.7l-.21-.5c-2.74-6.57-5.33-12.79-8.1-19.47-1.65.77-3.64 1.07-4.4 2.19a38.2 38.2 0 0 0-3.83 7.9c-2.17 5.67-3.38 11.87-6.42 17a57.84 57.84 0 0 1-10 12.65c-5.29 5-9.78 10.76-16.28 14.35a2.8 2.8 0 0 0-1.74 2.47 6.4 6.4 0 0 0 1.35 3.37c18.26-8 32.89-19.15 40.06-38.08.38-1 .76-2 1.09-3.07.61 1.25.6 2.38 1 3.29v.12a31.24 31.24 0 0 1 2.91 14.93c0 2.47 1.76 3.33 3.6 3.57 4.22-1.85 5.82-5.21 6.37-9.11.75-5.4 1.53-10.82 1.84-16.25.36-6.3.27-12.63.27-18.95a109.53 109.53 0 0 0-.38-13.02Zm-27-84-7.49-12.16 2.14-1.66 7.86 7.5Zm.88-14c-.73-1.3-1.58-2.53-2.64-4.2l8.35-6.8c1.34 5 .84 7.25-3.44 15.47-.82-1.6-1.49-3.06-2.27-4.47Zm-27.25 159c1.81-1.73 1.87-4 .48-5.32-1.66-1.61-3.28-1.09-4.9.15-2.23 1.71-4.39 3.55-6.77 5a67.48 67.48 0 0 1-12.88 6.46c-.38.14-.75.29-1.13.42a46.94 46.94 0 0 1-9.33 2.16c-6.15.77-12.15 1.62-18.07-.84-1.58-.66-2.94-.54-4 .89a3.37 3.37 0 0 0 0 4.18c.71 1 1.35 2.09 2.67 4.15-2.73-.77-4.61-.89-6-1.76a90.24 90.24 0 0 1-16.48-12.91c-.66-.66-1.32-1.33-2-2a125.35 125.35 0 0 1-12.21-15.75l-.46-.67c-.5-.73-1-1.48-1.38-2.23a19.76 19.76 0 0 1-2.36-14.6c.29-1.28.5-2.72-1.64-3.31-4.31 3.7-6 8.43-7 13.54-.69 3.6-1.06 7.38-1.77 11.12a9.13 9.13 0 0 1-1.18-1.62 75.51 75.51 0 0 1-2.45-10 125.48 125.48 0 0 1-1.68-16.34A83.41 83.41 0 0 1 57.25 148c1-3.45 1.87-7 2.6-10.49.15-.76-.58-1.69-.94-2.67L48.85 146c-1.59 1.78-3.22 3.59-4.92 5.47.38-3 .76-5.53 1.07-7.9.26-2 .47-3.89.58-5.77a54.25 54.25 0 0 1 4.48-17.64 38.68 38.68 0 0 1 6-9.74 86.64 86.64 0 0 1 13.27-12.3c2-1.56 4.17-3 6-4.6A16.23 16.23 0 0 0 78 90.75a103.27 103.27 0 0 0 8.75-15.4c5.7-11.74 12.62-22.44 23.18-30.47a14.18 14.18 0 0 1 7.07-3.16c3.15-.38 6.24-1.23 8.52-3.58a6.45 6.45 0 0 0 1.93-3.71v-.71A11 11 0 0 0 125 27c-1.22-1.54-2.65-2.44-4.89-1.71-.84 2.9.42 5.46 1.29 8.17-7.59 1-13 6-18.63 10.34-.44.34-.88.68-1.33 1-3.89 2.91-7.22 6.57-10.8 9.89l-.28-.2c-2.18-1.58-4.3-3-6.24-4.59-2.16-1.78-4.21-3.72-6.22-5.68-1.79-1.76-4-1.72-6-1.17s-2.31 2.63-2.11 4.53c.26 2.46.73 4.9.95 7.36.68 7.39 2.55 14.32 7.71 20.22-3.33 4.89-5.36 10.55-10.12 14.52a159.59 159.59 0 0 0-14.16 13c-3.68 3.9-7 8.27-8.82 13.47-1.08 3.07-2.12 6.15-3 9.26-.15.48-.3 1-.43 1.44a72 72 0 0 0-2.06 9.06c-.12.84-.21 1.69-.28 2.54-.27 3.27-.28 6.6-1.18 9.68-1.21 4.1-1.24 8.17-1.7 12.28-.43 3.76 1.62 5.6 4.38 7.63 1.9-3.51 2.54-7.49 6.17-9.73l.44-.27c-.64 4.8-1.3 9.35-1.83 13.92a13.22 13.22 0 0 0 0 5 52.3 52.3 0 0 1 1.61 9.81c.4 4.08.79 8.17 2.33 12 2.6 6.55 3.2 14.12 9.39 18.87 1.48 1.13 3.07 2.13 5.35 3.71v-22l1-.27c.82 1.15 1.74 2.25 2.45 3.46a100.24 100.24 0 0 0 8.48 12.8 116.55 116.55 0 0 0 20.54 19.36 12.81 12.81 0 0 0 4.37 2.06c5.86 1.56 11.82 2.76 17.62 4.48 2.45.73 4 0 5-1.82s0-3.38-1.57-4.67-2.76-2.73-4.3-4.27c5.88-.62 11.22-1.61 16.57-1.65a29.53 29.53 0 0 0 11.48-2.57A112.41 112.41 0 0 0 158 220a32.5 32.5 0 0 0 6.17-4.94ZM83.77 57.14l3.45 2.4c-1.82 3.46-3.61 6.84-5.68 10.78-1.09-1.93-1.8-3.18-2.73-4.8ZM130.7 32.8a7.33 7.33 0 0 1 .42-3.47c1.12-3.68 1.31-8.35 7.44-8.95A23.63 23.63 0 0 1 137 31.82a33.82 33.82 0 0 1-2.6 5.17c-2.26-1.56-3.4-2.69-3.7-4.19Zm49 129.74c1.38-5.23 2.15-10.63 3-16 .63-3.77 1-7.57 1.48-11.32 2.15-.92 4.15-1.68 6.08-2.61 2.31-1.1 3-2.64 2.14-4.24s-2.86-2.17-4.72-.87a54 54 0 0 1-14 6.89 95.11 95.11 0 0 1-10.92 2.85l-1.65.32c-3.21.62-6.55 1.44-8.8-.09a61 61 0 0 1-6.22 2 5.59 5.59 0 0 1-.59.08h-.27c-2.38.17-4.75.28-7.13.34a109.61 109.61 0 0 1-15.69-.68l-1.34-.16c-10.25-1.41-20.42-3.41-30.6-5.23-3.23-.58-6.4-1.5-9.63-2.12a3.21 3.21 0 0 0-3.84 2.51c-.57 1.87-.28 3.65 1.7 4.7a5.55 5.55 0 0 0 1.8.84c3.91.48 6.58 3 8.71 5.87a58.66 58.66 0 0 1 6.41 10.5c2.52 5.68 4 11.81 6.7 17.4a24.58 24.58 0 0 0 7 8.85 51 51 0 0 0 13 6.93 40.34 40.34 0 0 0 13.84 2.85c7.35-.06 14.67-1 21.64-4.22a52.8 52.8 0 0 0 13.2-8.53c5.06-4.53 7.07-10.66 8.7-16.86Zm-35.32 12.87c1.31-3.45 2.62-6.9 4-10.39l3.42-9c.53-1.37 1.05-2.73 1.58-4.13.32 1.28.64 2.53.95 3.79 2 8 4 15.68 5.91 23.4a43.52 43.52 0 0 1-9.67 4 23 23 0 0 1-5 .72c-2.51-2.63-2.3-5.47-1.19-8.39Zm17.37-32.94 12.39-3.47-3.67 11.48c-2.06 6.41-4.06 12.68-6.07 18.94l-1.17.15-.69-2.85c-.87-3.61-1.74-7.22-2.61-10.8-1-4.08-2-8.13-2.93-12.11Zm7.95 28.26 6.53-20.21c1.11 5.75-1.65 15.12-6.53 20.21Zm-33.89-25.93h10.89c-.82 5.95-3.16 11.4-5.44 16.94-2.23 5.39-3.9 11-5.82 16.54l-1.12-.12c-1.2-5.19-2.4-10.37-3.63-15.66-1.33-5.74-2.69-11.59-4.11-17.7Zm-9.76 18.92c.61 2.87 1.16 5.78 1.64 8.75.56 3.45 1 7 1.28 10.67l-1.82-.61-4.9-1.65c-1.48-.52-2.93-1-4.33-1.62-2.23-.94-1.52-3.16-1-4.78 2.18-7 4.55-14 6.85-21 .77 3.41 1.55 6.8 2.28 10.24Zm-6.57-18.64h.1l-.09.23-8.74 23.31-.8-.22c-.47-4.07-.93-8.14-1.4-12.25-.42-3.65-.84-7.32-1.27-11.07h12.2Zm-24.87-2.35 3 .55 3.38.62c1.23 4.07 2.56 7.9 3.51 11.83a41.23 41.23 0 0 1 .55 6.61c-3-5.46-4.6-11.35-8.31-16.8a30.13 30.13 0 0 0-2.13-2.81Zm-.29-53.95a67.57 67.57 0 0 0 1.82 7.49 30.06 30.06 0 0 0 8.5 14c1 .87 2 1.7 3 2.49a45.2 45.2 0 0 0 4.09 2.87 35.6 35.6 0 0 0 3.72 2.05 27.9 27.9 0 0 0 16.83 2.3 46.91 46.91 0 0 0 5.2-1.15 51.6 51.6 0 0 0 9.68-3.87 23.82 23.82 0 0 0 11.51-12.43c2.79-6.92 3.81-14.27 4.33-24.19-.59-3.12-1.33-8.67-2.72-14-2-7.84-8.32-11.68-15.25-14.28-3.65-1.37-7.81-1.27-11.59-2.36-7-2-13.05-.41-18.67 3.7-2.66 2-5.12 4.16-7.73 6.19-5.09 4-9.36 8.38-9.64 15.4 0 1.26-1 2.45-1.24 3.74-.36 2-1 4-1.41 6a15.31 15.31 0 0 0-.43 6.05Zm57.94 10.86a26.42 26.42 0 0 1-3.2 5 19 19 0 0 1-7.27 5.62c-5.88 2.3-12.17 3.64-18.5 2.35-2.81-.58-5.46-2.24-8-3.69-8.29-4.78-12.29-12.57-14.37-21.43-.52-2.25.43-4.87.87-7.29.55-3.06 1.22-6.11 1.94-9.15C105 65.84 108.37 62.31 113 60c3.23-1.64 6.76-2.69 10-4.26 3.67-1.76 7.14-.17 10.61.44a97.23 97.23 0 0 1 9.48 2.6c4.87 1.36 8.48 4.08 10.25 9 1.63 4.55 3.12 9.09 2.53 12.46 0 1.41 0 2.77-.11 4.1-.29 5.76-1.25 10.82-3.5 15.3Zm-15-20c.81 5.73-2.12 9.74-7.65 10a5.16 5.16 0 0 1-3.8-1.64c-3.51-4.54-3-9.82 2.54-14.2a26.59 26.59 0 0 1 4.37-2.23v3.82c-.05 4.02.1 4.16 4.53 4.23Zm8.23 4.16c-.75 8.63-4.18 14.94-14.61 16.56-6.49 1-15.05-5.22-16.51-11.65-1.42-6.24 2.25-15.53 7.56-19.28a42.48 42.48 0 0 0 3.41-2.9 7.78 7.78 0 0 1 8.22-1.15c.3.16.3.87.6 1.86-5.39 1.4-9.31 3.93-11.53 9s-2.06 10.48 1.3 14.27c2.56 2.88 5.88 4.06 9.44 3 3.19-.93 6-2.79 6.51-6.73.36-2.93 1-5.83 1.44-8.73 3.05.83 4.45 2.41 4.16 5.73Z" fill="#04b471" class="fill-1d1d1b"></path></svg>